#N canvas 889 82 692 919 12;
#X obj 21 254 cnv 15 640 120 empty empty empty 20 12 0 14 #e0e0e0 #404040
0;
#X obj 22 386 cnv 15 638 160 empty empty empty 20 12 0 14 #e0e0e0 #404040
0;
#N canvas 400 130 592 425 import-image 0;
#X obj 121 181 pix_image;
#X obj 121 326 pix_texture;
#X obj 175 110 openpanel;
#X msg 175 139 open \$1;
#X obj 175 81 inlet;
#X obj 130 220 s image;
#X obj 121 355 rectangle 5 4;
#X obj 121 9 gemhead 10;
#X connect 0 0 1 0;
#X connect 0 0 5 0;
#X connect 1 0 6 0;
#X connect 2 0 3 0;
#X connect 3 0 0 0;
#X connect 4 0 2 0;
#X connect 7 0 0 0;
#X restore 50 298 pd import-image;
#X obj 50 272 bng 16 250 50 0 empty empty 1-import_image 16 7 0 10
#e4fc00 #000000 #000000;
#X obj 240 619 catch~ audio;
#X obj 240 656 output~;
#X floatatom 367 302 10 0 0 0 - - -, f 10;
#X obj 367 283 hsl 250 15 510 12500 1 1 GUIrangeMax empty empty -2
-8 0 10 #fcfcfc #000000 #000000 15400 1;
#X floatatom 367 349 10 0 0 0 - - -, f 10;
#X obj 367 330 hsl 250 15 120 500 1 1 GUIrangeMin empty empty -2 -8
0 10 #fcfcfc #000000 #000000 0 1;
#N canvas 110 150 1117 804 ctrlReproduccion 0;
#X obj 235 40 inlet;
#X obj 569 40 inlet;
#X obj 108 306 line;
#X floatatom 117 359 9 0 0 0 - - -, f 9;
#X obj 108 334 * 0.001;
#X obj 184 200 t b b;
#X msg 344 286 0;
#X msg 108 140 set 1000 \$1;
#X msg 108 234 1000 6829.47;
#X obj 108 116 r duration;
#X obj 108 419 s xpos;
#X obj 693 40 inlet;
#X obj 569 174 hsl 128 15 0 1 0 0 empty empty empty -2 -8 0 10 #fcfcfc
#000000 #000000 0 1;
#X obj 569 128 random 100;
#X obj 569 151 * 0.01;
#X obj 569 104 metro 500;
#X obj 569 86 tgl 15 0 empty empty empty 17 7 0 10 #fcfcfc #000000
#000000 0 1;
#X obj 350 227 loadbang;
#X obj 566 399 line;
#X obj 344 40 inlet;
#X obj 256 354 sel 1;
#X obj 566 217 t f b;
#X obj 616 208 r interp;
#X obj 616 237 f;
#X obj 256 380 spigot;
#X obj 295 40 inlet;
#X obj 295 77 tgl 15 0 empty empty empty 17 7 0 10 #fcfcfc #000000
#000000 0 1;
#X obj 350 253 del 1;
#X obj 235 80 bng 15 250 50 0 empty empty empty 17 7 0 10 #fcfcfc #000000
#000000;
#X obj 235 120 t b b;
#X connect 0 0 28 0;
#X connect 1 0 16 0;
#X connect 2 0 4 0;
#X connect 4 0 3 0;
#X connect 4 0 10 0;
#X connect 4 0 20 0;
#X connect 5 0 8 0;
#X connect 5 1 6 0;
#X connect 6 0 2 0;
#X connect 7 0 8 0;
#X connect 8 0 2 0;
#X connect 9 0 7 0;
#X connect 11 0 12 0;
#X connect 12 0 21 0;
#X connect 13 0 14 0;
#X connect 14 0 12 0;
#X connect 15 0 13 0;
#X connect 16 0 15 0;
#X connect 17 0 27 0;
#X connect 18 0 10 0;
#X connect 19 0 6 0;
#X connect 20 0 24 0;
#X connect 21 0 18 0;
#X connect 21 1 23 0;
#X connect 22 0 23 0;
#X connect 23 0 18 1;
#X connect 24 0 5 0;
#X connect 25 0 26 0;
#X connect 26 0 24 1;
#X connect 27 0 6 0;
#X connect 28 0 29 0;
#X connect 29 0 8 0;
#X connect 29 1 6 0;
#X restore 181 480 pd ctrlReproduccion;
#X obj 320 461 hsl 128 15 0 1 0 0 empty empty empty -2 -8 0 10 #fcfcfc
#000000 #000000 0 1;
#X obj 281 461 tgl 15 0 empty empty empty 17 7 0 10 #fcfcfc #000000
#000000 0 1;
#X text 357 435 Manual;
#X obj 245 461 bng 15 250 50 0 empty GUI-reset empty 17 7 0 10 #fcfcfc
#000000 #000000;
#X text 232 436 Reset;
#X text 277 436 RND;
#N canvas 860 216 886 767 GUI 0;
#X obj 218 283 r GUIrangeMax;
#X obj 228 483 r GUIrangeMin;
#X obj 250 438 s rangeMax;
#X obj 260 640 s rangeMin;
#X obj 218 311 f;
#X obj 228 512 f;
#X obj 38 22 r GUIupdate;
#X obj 68 81 bng 15 250 50 0 empty empty empty 17 7 0 10 #fcfcfc #000000
#000000;
#X obj 219 120 f;
#X floatatom 258 225 5 0 0 0 - - -, f 5;
#X obj 219 61 r GUIduration;
#X obj 251 248 s duration;
#X obj 219 87 * 1000;
#X obj 380 250 gemwin;
#X msg 380 220 0 \, destroy;
#X obj 420 90 loadbang;
#X obj 251 201 line;
#X obj 265 146 r interp;
#X obj 265 176 f;
#X obj 219 146 t b f;
#X floatatom 257 414 5 0 0 0 - - -, f 5;
#X obj 250 390 line;
#X obj 264 335 r interp;
#X obj 264 365 f;
#X obj 218 335 t b f;
#X floatatom 267 615 5 0 0 0 - - -, f 5;
#X obj 260 591 line;
#X obj 274 536 r interp;
#X obj 274 566 f;
#X obj 228 536 t b f;
#X obj 380 21 inlet;
#X obj 380 50 sel 0 1, f 9;
#X msg 410 180 color 1 1 1 1;
#X obj 410 120 t b b;
#X msg 460 150 reset \, dimen 640 480 \, create \, 1;
#X obj 690 600 s GUI-individual-gain;
#X msg 690 569 0.5;
#X obj 37 50 t b b;
#X obj 670 460 r GUI-reset;
#X obj 760 500 r GUIinterp;
#X obj 750 529 f;
#X obj 750 558 s interp;
#X obj 512 649 f;
#X obj 669 488 t b b b;
#X obj 512 690 s autoscan;
#X obj 550 640 tgl 15 0 empty empty empty 17 7 0 10 #fcfcfc #000000
#000000 0 1;
#X obj 512 570 t b b;
#X msg 652 600 0;
#X obj 530 610 r GUIautoscan;
#X obj 510 520 del 60;
#X obj 870 510 s GUI-offset;
#X msg 870 480 1;
#X connect 0 0 4 0;
#X connect 1 0 5 0;
#X connect 4 0 24 0;
#X connect 5 0 29 0;
#X connect 6 0 37 0;
#X connect 7 0 4 0;
#X connect 7 0 5 0;
#X connect 7 0 8 0;
#X connect 8 0 19 0;
#X connect 10 0 12 0;
#X connect 12 0 8 0;
#X connect 14 0 13 0;
#X connect 15 0 33 0;
#X connect 16 0 11 0;
#X connect 16 0 9 0;
#X connect 17 0 18 0;
#X connect 18 0 16 1;
#X connect 19 0 18 0;
#X connect 19 1 16 0;
#X connect 21 0 20 0;
#X connect 21 0 2 0;
#X connect 22 0 23 0;
#X connect 23 0 21 1;
#X connect 24 0 23 0;
#X connect 24 1 21 0;
#X connect 26 0 25 0;
#X connect 26 0 3 0;
#X connect 27 0 28 0;
#X connect 28 0 26 1;
#X connect 29 0 28 0;
#X connect 29 1 26 0;
#X connect 30 0 31 0;
#X connect 31 0 14 0;
#X connect 31 1 33 0;
#X connect 32 0 13 0;
#X connect 33 0 32 0;
#X connect 33 1 34 0;
#X connect 34 0 13 0;
#X connect 36 0 35 0;
#X connect 37 1 7 0;
#X connect 38 0 43 0;
#X connect 38 0 51 0;
#X connect 39 0 40 0;
#X connect 40 0 41 0;
#X connect 42 0 44 0;
#X connect 43 0 49 0;
#X connect 43 1 36 0;
#X connect 43 1 7 0;
#X connect 43 2 40 0;
#X connect 46 0 42 0;
#X connect 46 1 47 0;
#X connect 47 0 44 0;
#X connect 48 0 42 1;
#X connect 48 0 45 0;
#X connect 49 0 46 0;
#X connect 51 0 50 0;
#X restore 30 680 pd GUI;
#X obj 35 484 hsl 128 15 0.1 300 1 1 GUIduration empty empty -2 -8
0 10 #fcfcfc #000000 #000000 6700 1;
#X floatatom 35 504 5 0 0 0 - - -, f 5;
#X text 75 504 Duration(sec);
#N canvas 467 239 883 767 scanPoints 0;
#X obj 118 217 until;
#X obj 118 538 s pd-subpatch;
#X floatatom 118 297 5 0 0 0 - - -, f 5;
#X obj 118 270 f;
#X obj 151 270 + 1;
#X text 235 111 nro de scan points;
#X obj 210 418 expr ($f1 * 22 ) +10;
#X text 223 539 creacion de los osciladores;
#X obj 198 54 loadbang;
#X obj 198 81 t b b;
#X msg 450 516 clear;
#X obj 98 610 s GUI-reset;
#X obj 98 590 bng 15 250 50 0 empty empty empty 17 7 0 10 #fcfcfc #000000
#000000;
#X obj 98 182 t b f f b;
#X obj 98 61 inlet;
#X obj 98 130 t f b;
#X msg 198 111 60;
#X obj 98 564 del 1;
#X obj 470 290 t b f;
#X msg 470 319 1;
#X obj 470 348 /;
#X obj 470 377 *;
#X obj 620 300 t b f;
#X obj 98 90 f;
#X obj 650 170 ==;
#X obj 680 230 f;
#X obj 650 110 t f f f;
#X obj 650 199 bng 15 250 50 0 empty empty empty 17 7 0 10 #fcfcfc
#000000 #000000;
#X obj 720 260 change;
#X obj 650 140 pipe 500;
#X obj 460 400 +;
#X obj 590 60 inlet;
#X text 640 60 off set;
#X text 740 630 filtro de cambios;
#X obj 220 595 s linear-scan-init;
#X msg 118 512 obj 20 \$2 abstracciones/linear-scan \$1;
#X msg 164 240 0;
#X floatatom 30 60 5 0 0 0 - - -, f 5;
#X obj 780 350 vsl 15 30 0.9 0 0 0 empty empty empty 0 -9 0 10 #fcfcfc
#000000 #000000 0 1;
#X obj 630 459 print;
#X floatatom 730 350 5 0 0 0 - - -, f 5;
#X obj 130 670 expr $f1/($f2-1) \; $f1;
#X obj 630 430 expr;
#X obj 700 550 t b f;
#X obj 570 740 f;
#X obj 670 650 f;
#X obj 670 620 del 1000;
#X obj 680 700 ==;
#X obj 545 678 sel 1;
#X obj 540 710 bng 15 50 50 0 empty empty empty 17 7 0 10 #fcfcfc #000000
#000000;
#X obj 120 330 expr if ($f1 >= 0 \, 1 \, -1 ) \; ($f1/($f2-1))-((1/($f2-1))*$f3)
\; $f1;
#X obj 118 448 pack f f f;
#X obj 120 480 route 1;
#X connect 0 0 3 0;
#X connect 2 0 50 0;
#X connect 3 0 4 0;
#X connect 3 0 2 0;
#X connect 3 0 42 0;
#X connect 4 0 3 1;
#X connect 6 0 51 2;
#X connect 8 0 9 0;
#X connect 9 0 16 0;
#X connect 10 0 1 0;
#X connect 12 0 11 0;
#X connect 13 0 17 0;
#X connect 13 1 0 0;
#X connect 13 2 18 0;
#X connect 13 2 50 1;
#X connect 13 3 36 0;
#X connect 14 0 23 0;
#X connect 15 0 13 0;
#X connect 15 1 10 0;
#X connect 16 0 15 0;
#X connect 17 0 12 0;
#X connect 17 0 34 0;
#X connect 18 0 19 0;
#X connect 18 1 20 1;
#X connect 19 0 20 0;
#X connect 20 0 21 0;
#X connect 21 0 30 1;
#X connect 22 0 23 0;
#X connect 22 1 50 2;
#X connect 23 0 15 0;
#X connect 24 0 27 0;
#X connect 25 0 28 0;
#X connect 26 0 29 0;
#X connect 26 1 24 1;
#X connect 26 2 25 1;
#X connect 27 0 25 0;
#X connect 29 0 24 0;
#X connect 31 0 26 0;
#X connect 31 0 43 0;
#X connect 35 0 1 0;
#X connect 36 0 3 1;
#X connect 37 0 23 0;
#X connect 38 0 40 0;
#X connect 42 0 39 0;
#X connect 43 0 46 0;
#X connect 43 1 45 1;
#X connect 43 1 47 1;
#X connect 43 1 44 1;
#X connect 44 0 22 0;
#X connect 45 0 47 0;
#X connect 46 0 45 0;
#X connect 47 0 48 0;
#X connect 48 0 49 0;
#X connect 48 0 44 0;
#X connect 50 0 51 0;
#X connect 50 1 51 1;
#X connect 50 2 6 0;
#X connect 51 0 52 0;
#X connect 52 0 35 0;
#X restore 100 650 pd scanPoints;
#X text 49 324 tamaño sugerido: 320 x 240;
#X text 49 348 negro = silencio / blanco = activo;
#X text 241 394 Lectura Eje Horizontal;
#X msg 543 459 200;
#X msg 576 459 750;
#X obj 543 434 loadbang;
#X text 157 143 *******************************************************
;
#X text 157 11 *******************************************************
;
#N canvas 705 72 450 398 subpatch 0;
#X obj 20 10 abstracciones/linear-scan -0.0190439;
#X obj 20 32 abstracciones/linear-scan 0.00368339;
#X obj 20 54 abstracciones/linear-scan 0.0264107;
#X obj 20 76 abstracciones/linear-scan 0.0491379;
#X obj 20 98 abstracciones/linear-scan 0.0718652;
#X obj 20 120 abstracciones/linear-scan 0.0945925;
#X obj 20 142 abstracciones/linear-scan 0.11732;
#X obj 20 164 abstracciones/linear-scan 0.140047;
#X obj 20 186 abstracciones/linear-scan 0.162774;
#X obj 20 208 abstracciones/linear-scan 0.185502;
#X obj 20 230 abstracciones/linear-scan 0.208229;
#X obj 20 252 abstracciones/linear-scan 0.230956;
#X obj 20 274 abstracciones/linear-scan 0.253683;
#X obj 20 296 abstracciones/linear-scan 0.276411;
#X obj 20 318 abstracciones/linear-scan 0.299138;
#X obj 20 340 abstracciones/linear-scan 0.321865;
#X obj 20 362 abstracciones/linear-scan 0.344592;
#X obj 20 384 abstracciones/linear-scan 0.36732;
#X obj 20 406 abstracciones/linear-scan 0.390047;
#X obj 20 428 abstracciones/linear-scan 0.412774;
#X obj 20 450 abstracciones/linear-scan 0.435502;
#X obj 20 472 abstracciones/linear-scan 0.458229;
#X obj 20 494 abstracciones/linear-scan 0.480956;
#X obj 20 516 abstracciones/linear-scan 0.503683;
#X obj 20 538 abstracciones/linear-scan 0.526411;
#X obj 20 560 abstracciones/linear-scan 0.549138;
#X obj 20 582 abstracciones/linear-scan 0.571865;
#X obj 20 604 abstracciones/linear-scan 0.594593;
#X obj 20 626 abstracciones/linear-scan 0.61732;
#X obj 20 648 abstracciones/linear-scan 0.640047;
#X obj 20 670 abstracciones/linear-scan 0.662774;
#X obj 20 692 abstracciones/linear-scan 0.685502;
#X obj 20 714 abstracciones/linear-scan 0.708229;
#X obj 20 736 abstracciones/linear-scan 0.730956;
#X obj 20 758 abstracciones/linear-scan 0.753683;
#X obj 20 780 abstracciones/linear-scan 0.776411;
#X obj 20 802 abstracciones/linear-scan 0.799138;
#X obj 20 824 abstracciones/linear-scan 0.821865;
#X obj 20 846 abstracciones/linear-scan 0.844593;
#X obj 20 868 abstracciones/linear-scan 0.86732;
#X obj 20 890 abstracciones/linear-scan 0.890047;
#X obj 20 912 abstracciones/linear-scan 0.912774;
#X obj 20 934 abstracciones/linear-scan 0.935502;
#X obj 20 956 abstracciones/linear-scan 0.958229;
#X obj 20 978 abstracciones/linear-scan 0.980956;
#X restore 110 680 pd subpatch;
#X text 157 203 *******************************************************
;
#N canvas 316 96 494 608 descripcion_de_funcionamiento 0;
#X text 13 23 Análisis de información de color en una imagen (input)
y simultanea generación de señal de audio (output) mediante sintesis
aditiva (banco de osciladores).;
#X text 14 92 La imagen (input) es considerada como una grilla de dos
dimensiones \, siendo el horizontal asignado al tiempo y el vertical
a la altura del sonido a generar.;
#X text 14 274 Cada fila \, tiene asociada un oscilador cosenoidal
\, de manera que al encontrar información de color se activa el oscilador
especifico de cada fila.;
#X text 16 335 El color negro fue definido arbitariamente como "ausencia
de color" y el color blanco como "presencia". De manera que una imagen
completamente negra no emitirá ningún sonido y una imagen completamente
blanca mantendrá activos todos los osciladores constantemente.;
#X text 16 425 Un imagen de fondo negro con una línea horizontal blanca
mantendrá activo constantemente un único oscilador.;
#X text 16 465 Un imagen de fondo negro con una línea vertical blanca
mantendrá activo los osciladores que se correspondan con esas filas
específicas durante el "momento" correspondiente al eje horizontal.
;
#X text 16 545 El recorrido de la imagen puede ser manual o automatico.
La lactura automátiza es cíclica \, de izquierda a derecha. De manera
que luego de recorrer la totalidad de la imagen repite el recorrido
saltando de la última posición (extremo derecho) a la primera (extremo
ixquierdo);
#X text 14 152 Para el análisis de la imagen \, se evalua cada posicion
del eje vertical \, o "filas" \, según cada valor del eje horizontal
\, o "columnas". Una vez definida una posición en el ejer horizontal
para la lectura de la información \, se evalúa si hay información
de color en cada una de las posiciones del eje vertical. Esa cantidad
de puntos de analisis está definida en el "nro de scan points".;
#X restore 237 174 pd descripcion_de_funcionamiento;
#X text 426 257 Rango de Frecuencias;
#X text 452 302 Hz Frec Max (limite sup);
#X text 455 348 Hz Frec Min (limite inf);
#X text 60 430 Auto Scan;
#X obj 30 660 tgl 15 0 empty empty empty 17 7 0 10 #fcfcfc #000000
#000000 0 1;
#X text 314 32 DATALINA;
#X text 180 60 Una adaptación de "Catalina" (1973 \, Fernando von
Reichenbach) desarrollada en Pure Data.;
#N canvas 255 406 684 498 sobreDatalina 0;
#X text 30 20 Datalina (2026) es un patch creado por Damian Anache.
;
#X text 30 170 https://archivofvr.unq.edu.ar/;
#X text 30 243 https://www.youtube.com/watch?v=tH-FXIpVwxU;
#X text 30 360 https://ezequielabregu.github.io/code-that-sounds/;
#X text 30 50 Para este proyecto me inspiré en Catalina \, el conversor
desarrollado por Fernando von Reichenbach y patentado en 1973 (EE.
UU.).;
#X text 30 110 Pueden encontrar información detallada sobre el trabajo
de Fernando von Reichenbach en el Archivo de Música y Arte Sonoro
FvR \, radicado en la Universidad Nacional de Quilmes:;
#X text 30 200 También recomiendo esta entrevista \, donde comento
el trabajo de Fernando y el proyecto Catalina:;
#X text 30 280 Para el desarrollo de este patch tomé como base el
trabajo de Ezequiel Abregú: Code That Sounds: Creative Coding and
Sonic Thinking with Pure Data (2025). Capítulo 5: Sonification \,
sección 5.9 Image Scanner. Disponible en:;
#X restore 290 110 pd sobreDatalina;
#X obj 205 461 tgl 15 0 empty empty empty 17 7 0 10 #fcfcfc #000000
#000000 0 1;
#X text 195 436 Loop;
#X text 384 600 REC;
#X obj 390 625 bng 15 250 50 0 empty GUIrecAudio empty 17 7 0 10 #fc0000
#000000 #000000;
#X obj 431 624 bng 15 250 50 0 empty GUIrecAudioStop empty 17 7 0 10
#fcfcfc #000000 #000000;
#X text 421 599 STOP;
#X floatatom 556 626 5 0 0 0 - - -, f 5;
#X obj 506 610 hsl 128 15 0 1 0 0 gain-individual GUI-individual-gain
empty -2 -8 0 10 #fcfcfc #000000 #000000 3250 1;
#X text 500 588 nivel amp individual;
#X msg 479 459 10;
#X text 37 573 nro de scan points;
#X msg 63 595 30;
#X msg 30 596 15;
#X obj 188 595 vsl 15 30 0.9 0 0 0 GUI-offset empty empty 0 -9 0 10
#fcfcfc #000000 #000000 200 1;
#X text 173 572 offset;
#X obj 543 510 s GUIinterp;
#X msg 126 595 90;
#X msg 512 459 100;
#X floatatom 543 486 5 0 0 0 - - -, f 5;
#N canvas 729 418 491 566 grabarVideo 0;
#X obj 280 300 gemhead 99;
#X obj 260 340 pix_write 0 0 640 480 3;
#X msg 260 150 file video/cuadros 99;
#X msg 70 320 auto \$1;
#X obj 70 301 tgl 15 0 empty empty empty 17 7 0 10 #fcfcfc #000000
#000000 0 1;
#X obj 70 40 inlet;
#X obj 260 120 sel 1;
#X obj 70 100 t f f;
#X obj 102 164 sel 1 0;
#X obj 102 253 s GUIrecAudio;
#X obj 102 193 bng 15 250 50 0 empty empty empty 17 7 0 10 #fcfcfc
#000000 #000000;
#X obj 125 193 bng 15 250 50 0 empty empty empty 17 7 0 10 #fcfcfc
#000000 #000000;
#X obj 125 218 s GUIrecAudioStop;
#X connect 0 0 1 0;
#X connect 2 0 1 0;
#X connect 3 0 1 0;
#X connect 4 0 3 0;
#X connect 5 0 7 0;
#X connect 6 0 2 0;
#X connect 7 0 4 0;
#X connect 7 1 6 0;
#X connect 7 1 8 0;
#X connect 8 0 10 0;
#X connect 8 1 11 0;
#X connect 10 0 9 0;
#X connect 11 0 12 0;
#X restore 350 700 pd grabarVideo;
#X obj 90 460 bng 20 250 50 0 empty empty empty 17 7 0 10 #00ff0d #000000
#000000;
#N canvas 1008 439 715 362 grabarAudio 0;
#X obj 89 49 inlet~;
#X obj 170 270 writesf~ 1;
#X msg 450 214 stop;
#X obj 170 104 t b b, f 9;
#X obj 170 76 bng 15 250 50 0 empty empty empty 17 7 0 10 #fcfcfc #000000
#000000;
#X msg 239 160 open grabacion1.wav \, start;
#X msg 170 130 start;
#X obj 170 50 inlet;
#X obj 450 66 bng 15 250 50 0 empty empty empty 17 7 0 10 #fcfcfc #000000
#000000;
#X obj 450 40 inlet;
#X obj 89 82 *~ 0.9;
#X msg 480 130 open -bytes 3 grabacion24bit.wav;
#X msg 480 153 open -bytes 4 audio.wav;
#X msg 229 130 open -bytes 4 audio.wav;
#X msg 480 183 open audio.wav;
#X connect 0 0 10 0;
#X connect 2 0 1 0;
#X connect 3 0 6 0;
#X connect 3 1 13 0;
#X connect 4 0 3 0;
#X connect 5 0 1 0;
#X connect 6 0 1 0;
#X connect 7 0 4 0;
#X connect 8 0 2 0;
#X connect 9 0 8 0;
#X connect 10 0 1 0;
#X connect 13 0 1 0;
#X restore 350 650 pd grabarAudio;
#X obj 350 680 tgl 15 0 empty empty empty 17 7 0 10 #fcfcfc #000000
#000000 0 1;
#X msg 93 595 45;
#X text 480 395 Tiempo de Interpolacion;
#X floatatom 100 626 5 0 0 0 - - -, f 5;
#X obj 30 550 loadbang;
#X obj 564 683 bng 15 250 50 0 empty empty empty 17 7 0 10 #fcfcfc
#000000 #000000;
#X text 480 660 frec de oscilador en consola;
#X msg 606 459 1500;
#N canvas 0 0 450 300 printFrec 0;
#X obj 130 40 inlet;
#X obj 130 69 t b b;
#X obj 130 168 s linear-scan-printFrec;
#X msg 162 100 valores de frecuencias de cada oscilador:;
#X obj 162 129 print;
#X connect 0 0 1 0;
#X connect 1 0 2 0;
#X connect 1 1 3 0;
#X connect 3 0 4 0;
#X restore 530 698 pd printFrec;
#X connect 3 0 2 0;
#X connect 4 0 5 0;
#X connect 4 0 5 1;
#X connect 4 0 62 0;
#X connect 7 0 6 0;
#X connect 9 0 8 0;
#X connect 11 0 10 4;
#X connect 12 0 10 3;
#X connect 14 0 10 2;
#X connect 18 0 19 0;
#X connect 25 0 59 0;
#X connect 26 0 59 0;
#X connect 27 0 25 0;
#X connect 37 0 17 0;
#X connect 41 0 10 1;
#X connect 44 0 62 1;
#X connect 45 0 62 2;
#X connect 48 0 47 0;
#X connect 50 0 59 0;
#X connect 52 0 66 0;
#X connect 53 0 66 0;
#X connect 54 0 21 1;
#X connect 57 0 66 0;
#X connect 58 0 59 0;
#X connect 59 0 56 0;
#X connect 61 0 10 0;
#X connect 63 0 60 0;
#X connect 64 0 66 0;
#X connect 66 0 21 0;
#X connect 67 0 53 0;
#X connect 68 0 71 0;
#X connect 70 0 59 0;
