#N canvas 1034 82 692 919 12;
#X declare -lib Gem;
#X obj 21 254 cnv 15 640 120 empty empty empty 20 12 0 14 #e0e0e0 #404040
0;
#X obj 22 386 cnv 15 638 160 empty empty empty 20 12 0 14 #e0e0e0 #404040
0;
#N canvas 390 122 592 425 import-image 0;
#X obj 121 181 pix_image;
#X obj 121 326 pix_texture;
#X obj 175 110 openpanel;
#X msg 175 139 open \$1;
#X obj 175 81 inlet;
#X obj 130 220 s image;
#X obj 121 355 rectangle 5 4;
#X obj 121 9 gemhead 10;
#X connect 0 0 1 0;
#X connect 0 0 5 0;
#X connect 1 0 6 0;
#X connect 2 0 3 0;
#X connect 3 0 0 0;
#X connect 4 0 2 0;
#X connect 7 0 0 0;
#X restore 50 298 pd import-image;
#X obj 50 272 bng 16 250 50 0 empty empty 1-import_image 16 7 0 10
#e4fc00 #000000 #000000;
#X obj 240 619 catch~ audio;
#X floatatom 367 302 10 0 0 0 - - -, f 10;
#X obj 367 283 hsl 250 15 510 12500 1 1 GUIrangeMax empty empty -2
-8 0 10 #fcfcfc #000000 #000000 24900 1;
#X floatatom 367 349 10 0 0 0 - - -, f 10;
#X obj 367 330 hsl 250 15 120 500 1 1 GUIrangeMin empty empty -2 -8
0 10 #fcfcfc #000000 #000000 24900 1;
#N canvas 110 150 1117 804 ctrlReproduccion 0;
#X obj 235 40 inlet;
#X obj 569 40 inlet;
#X obj 108 306 line;
#X floatatom 117 359 9 0 0 0 - - -, f 9;
#X obj 108 334 * 0.001;
#X obj 184 200 t b b;
#X msg 344 286 0;
#X msg 108 140 set 1000 \$1;
#X msg 108 234 1000 12044.7;
#X obj 108 116 r duration;
#X obj 108 419 s xpos;
#X obj 693 40 inlet;
#X obj 569 174 hsl 128 15 0 1 0 0 empty empty empty -2 -8 0 10 #fcfcfc
#000000 #000000 0 1;
#X obj 569 128 random 100;
#X obj 569 151 * 0.01;
#X obj 569 104 metro 500;
#X obj 569 86 tgl 15 0 empty empty empty 17 7 0 10 #fcfcfc #000000
#000000 0 1;
#X obj 350 227 loadbang;
#X obj 566 399 line;
#X obj 344 40 inlet;
#X obj 256 354 sel 1;
#X obj 566 217 t f b;
#X obj 616 208 r interp;
#X obj 616 237 f;
#X obj 256 380 spigot;
#X obj 295 40 inlet;
#X obj 295 77 tgl 15 0 empty empty empty 17 7 0 10 #fcfcfc #000000
#000000 0 1;
#X obj 350 253 del 1;
#X obj 235 80 bng 15 250 50 0 empty empty empty 17 7 0 10 #fcfcfc #000000
#000000;
#X obj 235 120 t b b;
#X connect 0 0 28 0;
#X connect 1 0 16 0;
#X connect 2 0 4 0;
#X connect 4 0 3 0;
#X connect 4 0 10 0;
#X connect 4 0 20 0;
#X connect 5 0 8 0;
#X connect 5 1 6 0;
#X connect 6 0 2 0;
#X connect 7 0 8 0;
#X connect 8 0 2 0;
#X connect 9 0 7 0;
#X connect 11 0 12 0;
#X connect 12 0 21 0;
#X connect 13 0 14 0;
#X connect 14 0 12 0;
#X connect 15 0 13 0;
#X connect 16 0 15 0;
#X connect 17 0 27 0;
#X connect 18 0 10 0;
#X connect 19 0 6 0;
#X connect 20 0 24 0;
#X connect 21 0 18 0;
#X connect 21 1 23 0;
#X connect 22 0 23 0;
#X connect 23 0 18 1;
#X connect 24 0 5 0;
#X connect 25 0 26 0;
#X connect 26 0 24 1;
#X connect 27 0 6 0;
#X connect 28 0 29 0;
#X connect 29 0 8 0;
#X connect 29 1 6 0;
#X restore 181 480 pd ctrlReproduccion;
#X obj 320 461 hsl 128 15 0 1 0 0 empty empty empty -2 -8 0 10 #fcfcfc
#000000 #000000 0 1;
#X obj 281 461 tgl 15 0 empty empty empty 17 7 0 10 #fcfcfc #000000
#000000 0 1;
#X text 357 435 Manual;
#X obj 245 461 bng 15 250 50 0 empty GUI-reset empty 17 7 0 10 #fcfcfc
#000000 #000000;
#X text 232 436 Reset;
#X text 277 436 RND;
#N canvas 589 216 1074 811 GUI 0;
#X obj 218 403 r GUIrangeMax;
#X obj 228 603 r GUIrangeMin;
#X obj 250 558 s rangeMax;
#X obj 260 760 s rangeMin;
#X obj 218 431 f;
#X obj 228 632 f;
#X obj 37 102 r GUIupdate;
#X obj 69 165 bng 15 250 50 0 empty empty empty 17 7 0 10 #fcfcfc #000000
#000000;
#X obj 219 240 f;
#X floatatom 258 345 5 0 0 0 - - -, f 5;
#X obj 219 181 r GUIduration;
#X obj 251 368 s duration;
#X obj 219 207 * 1000;
#X obj 740 280 gemwin;
#X msg 740 250 0 \, destroy;
#X obj 780 120 loadbang;
#X obj 251 321 line;
#X obj 265 266 r interp;
#X obj 265 296 f;
#X obj 219 266 t b f;
#X floatatom 257 534 5 0 0 0 - - -, f 5;
#X obj 250 510 line;
#X obj 264 455 r interp;
#X obj 264 485 f;
#X obj 218 455 t b f;
#X floatatom 267 735 5 0 0 0 - - -, f 5;
#X obj 260 711 line;
#X obj 274 656 r interp;
#X obj 274 686 f;
#X obj 228 656 t b f;
#X obj 740 51 inlet;
#X obj 740 80 sel 0 1, f 9;
#X msg 770 210 color 1 1 1 1;
#X obj 770 150 t b b;
#X msg 802 180 reset \, dimen 640 480 \, create \, 1;
#X obj 503 281 s GUI-individual-gain;
#X msg 503 254 0.5;
#X obj 37 130 t b b;
#X obj 480 55 r GUI-reset;
#X obj 536 169 r GUIinterp;
#X obj 526 195 f;
#X obj 526 221 s interp;
#X obj 480 401 f;
#X obj 480 145 t b b b;
#X obj 480 465 s autoscan;
#X obj 518 402 tgl 15 0 empty empty empty 17 7 0 10 #fcfcfc #000000
#000000 0 1;
#X obj 480 345 t b b;
#X msg 619 365 0;
#X obj 498 372 r GUIautoscan;
#X obj 480 315 del 60;
#X obj 490 106 s GUI-offset;
#X msg 490 82 1;
#X obj 40 20 declare -lib Gem;
#X connect 0 0 4 0;
#X connect 1 0 5 0;
#X connect 4 0 24 0;
#X connect 5 0 29 0;
#X connect 6 0 37 0;
#X connect 7 0 4 0;
#X connect 7 0 5 0;
#X connect 7 0 8 0;
#X connect 8 0 19 0;
#X connect 10 0 12 0;
#X connect 12 0 8 0;
#X connect 14 0 13 0;
#X connect 15 0 33 0;
#X connect 16 0 11 0;
#X connect 16 0 9 0;
#X connect 17 0 18 0;
#X connect 18 0 16 1;
#X connect 19 0 18 0;
#X connect 19 1 16 0;
#X connect 21 0 20 0;
#X connect 21 0 2 0;
#X connect 22 0 23 0;
#X connect 23 0 21 1;
#X connect 24 0 23 0;
#X connect 24 1 21 0;
#X connect 26 0 25 0;
#X connect 26 0 3 0;
#X connect 27 0 28 0;
#X connect 28 0 26 1;
#X connect 29 0 28 0;
#X connect 29 1 26 0;
#X connect 30 0 31 0;
#X connect 31 0 14 0;
#X connect 31 1 33 0;
#X connect 32 0 13 0;
#X connect 33 0 32 0;
#X connect 33 1 34 0;
#X connect 34 0 13 0;
#X connect 36 0 35 0;
#X connect 37 1 7 0;
#X connect 38 0 43 0;
#X connect 38 0 51 0;
#X connect 39 0 40 0;
#X connect 40 0 41 0;
#X connect 42 0 44 0;
#X connect 43 0 49 0;
#X connect 43 1 36 0;
#X connect 43 1 7 0;
#X connect 43 2 40 0;
#X connect 46 0 42 0;
#X connect 46 1 47 0;
#X connect 47 0 44 0;
#X connect 48 0 42 1;
#X connect 48 0 45 0;
#X connect 49 0 46 0;
#X connect 51 0 50 0;
#X restore 30 680 pd GUI;
#X obj 35 484 hsl 128 15 0.1 300 1 1 GUIduration empty empty -2 -8
0 10 #fcfcfc #000000 #000000 7600 1;
#X floatatom 35 504 5 0 0 0 - - -, f 5;
#X text 75 504 Duration(sec);
#N canvas 457 231 883 767 scanPoints 0;
#X obj 118 247 until;
#X obj 118 578 s pd-subpatch;
#X floatatom 118 327 5 0 0 0 - - -, f 5;
#X obj 118 300 f;
#X obj 151 300 + 1;
#X obj 339 458 expr ($f1 * 22 ) +10;
#X text 223 579 creacion de los osciladores;
#X msg 450 558 clear;
#X obj 98 710 s GUI-reset;
#X obj 98 690 bng 15 250 50 0 empty empty empty 17 7 0 10 #fcfcfc #000000
#000000;
#X obj 98 212 t b f f b;
#X obj 98 61 inlet;
#X obj 98 160 t f b;
#X obj 98 624 del 1;
#X obj 620 310 t b f;
#X obj 98 120 f;
#X obj 620 54 inlet;
#X text 670 54 off set;
#X text 712 150 filtro de cambios;
#X obj 107 649 s linear-scan-init;
#X msg 118 552 obj 20 \$2 abstracciones/linear-scan \$1;
#X msg 164 270 0;
#X floatatom 110 89 5 0 0 0 - - -, f 5;
#X obj 620 89 t b f;
#X obj 620 274 f;
#X obj 620 159 f;
#X obj 620 129 del 1000;
#X obj 620 186 ==;
#X obj 620 212 sel 1;
#X obj 627 239 bng 15 50 50 0 empty empty empty 17 7 0 10 #fcfcfc #000000
#000000;
#X obj 118 390 expr if ($f1 >= 0 \, 1 \, -1 ) \; ($f1/($f2-1))-((1/($f2-1))*$f3)
\; $f1;
#X obj 118 478 pack f f f;
#X obj 118 510 route 1;
#X connect 0 0 3 0;
#X connect 2 0 30 0;
#X connect 3 0 4 0;
#X connect 3 0 2 0;
#X connect 4 0 3 1;
#X connect 5 0 31 2;
#X connect 7 0 1 0;
#X connect 9 0 8 0;
#X connect 10 0 13 0;
#X connect 10 1 0 0;
#X connect 10 2 30 1;
#X connect 10 3 21 0;
#X connect 11 0 15 0;
#X connect 12 0 10 0;
#X connect 12 1 7 0;
#X connect 13 0 9 0;
#X connect 13 0 19 0;
#X connect 14 0 15 0;
#X connect 14 1 30 2;
#X connect 15 0 12 0;
#X connect 16 0 23 0;
#X connect 20 0 1 0;
#X connect 21 0 3 1;
#X connect 22 0 15 0;
#X connect 23 0 26 0;
#X connect 23 1 25 1;
#X connect 23 1 27 1;
#X connect 23 1 24 1;
#X connect 24 0 14 0;
#X connect 25 0 27 0;
#X connect 26 0 25 0;
#X connect 27 0 28 0;
#X connect 28 0 29 0;
#X connect 28 0 24 0;
#X connect 30 0 31 0;
#X connect 30 1 31 1;
#X connect 30 2 5 0;
#X connect 31 0 32 0;
#X connect 32 0 20 0;
#X restore 100 650 pd scanPoints;
#X text 49 324 tamaño sugerido: 320 x 240;
#X text 49 348 negro = silencio / blanco = activo;
#X text 241 394 Lectura Eje Horizontal;
#X msg 543 459 200;
#X msg 576 459 750;
#X obj 543 434 loadbang;
#X text 157 143 *******************************************************
;
#X text 157 11 *******************************************************
;
#N canvas 695 69 450 714 subpatch 0;
#X obj 20 10 abstracciones/linear-scan 0;
#X obj 20 32 abstracciones/linear-scan 0.0227273;
#X obj 20 54 abstracciones/linear-scan 0.0454545;
#X obj 20 76 abstracciones/linear-scan 0.0681818;
#X obj 20 98 abstracciones/linear-scan 0.0909091;
#X obj 20 120 abstracciones/linear-scan 0.113636;
#X obj 20 142 abstracciones/linear-scan 0.136364;
#X obj 20 164 abstracciones/linear-scan 0.159091;
#X obj 20 186 abstracciones/linear-scan 0.181818;
#X obj 20 208 abstracciones/linear-scan 0.204545;
#X obj 20 230 abstracciones/linear-scan 0.227273;
#X obj 20 252 abstracciones/linear-scan 0.25;
#X obj 20 274 abstracciones/linear-scan 0.272727;
#X obj 20 296 abstracciones/linear-scan 0.295455;
#X obj 20 318 abstracciones/linear-scan 0.318182;
#X obj 20 340 abstracciones/linear-scan 0.340909;
#X obj 20 362 abstracciones/linear-scan 0.363636;
#X obj 20 384 abstracciones/linear-scan 0.386364;
#X obj 20 406 abstracciones/linear-scan 0.409091;
#X obj 20 428 abstracciones/linear-scan 0.431818;
#X obj 20 450 abstracciones/linear-scan 0.454545;
#X obj 20 472 abstracciones/linear-scan 0.477273;
#X obj 20 494 abstracciones/linear-scan 0.5;
#X obj 20 516 abstracciones/linear-scan 0.522727;
#X obj 20 538 abstracciones/linear-scan 0.545455;
#X obj 20 560 abstracciones/linear-scan 0.568182;
#X obj 20 582 abstracciones/linear-scan 0.590909;
#X obj 20 604 abstracciones/linear-scan 0.613636;
#X obj 20 626 abstracciones/linear-scan 0.636364;
#X obj 20 648 abstracciones/linear-scan 0.659091;
#X obj 20 670 abstracciones/linear-scan 0.681818;
#X obj 20 692 abstracciones/linear-scan 0.704545;
#X obj 20 714 abstracciones/linear-scan 0.727273;
#X obj 20 736 abstracciones/linear-scan 0.75;
#X obj 20 758 abstracciones/linear-scan 0.772727;
#X obj 20 780 abstracciones/linear-scan 0.795455;
#X obj 20 802 abstracciones/linear-scan 0.818182;
#X obj 20 824 abstracciones/linear-scan 0.840909;
#X obj 20 846 abstracciones/linear-scan 0.863636;
#X obj 20 868 abstracciones/linear-scan 0.886364;
#X obj 20 890 abstracciones/linear-scan 0.909091;
#X obj 20 912 abstracciones/linear-scan 0.931818;
#X obj 20 934 abstracciones/linear-scan 0.954545;
#X obj 20 956 abstracciones/linear-scan 0.977273;
#X obj 20 978 abstracciones/linear-scan 1;
#X restore 110 680 pd subpatch;
#X text 157 203 *******************************************************
;
#N canvas 316 96 494 608 descripcion_de_funcionamiento 0;
#X text 13 23 Análisis de información de color en una imagen (input)
y simultanea generación de señal de audio (output) mediante sintesis
aditiva (banco de osciladores).;
#X text 14 92 La imagen (input) es considerada como una grilla de dos
dimensiones \, siendo el horizontal asignado al tiempo y el vertical
a la altura del sonido a generar.;
#X text 14 274 Cada fila \, tiene asociada un oscilador cosenoidal
\, de manera que al encontrar información de color se activa el oscilador
especifico de cada fila.;
#X text 16 335 El color negro fue definido arbitariamente como "ausencia
de color" y el color blanco como "presencia". De manera que una imagen
completamente negra no emitirá ningún sonido y una imagen completamente
blanca mantendrá activos todos los osciladores constantemente.;
#X text 16 425 Un imagen de fondo negro con una línea horizontal blanca
mantendrá activo constantemente un único oscilador.;
#X text 16 465 Un imagen de fondo negro con una línea vertical blanca
mantendrá activo los osciladores que se correspondan con esas filas
específicas durante el "momento" correspondiente al eje horizontal.
;
#X text 16 545 El recorrido de la imagen puede ser manual o automatico.
La lactura automátiza es cíclica \, de izquierda a derecha. De manera
que luego de recorrer la totalidad de la imagen repite el recorrido
saltando de la última posición (extremo derecho) a la primera (extremo
ixquierdo);
#X text 14 152 Para el análisis de la imagen \, se evalua cada posicion
del eje vertical \, o "filas" \, según cada valor del eje horizontal
\, o "columnas". Una vez definida una posición en el ejer horizontal
para la lectura de la información \, se evalúa si hay información
de color en cada una de las posiciones del eje vertical. Esa cantidad
de puntos de analisis está definida en el "nro de scan points".;
#X restore 237 174 pd descripcion_de_funcionamiento;
#X text 426 257 Rango de Frecuencias;
#X text 452 302 Hz Frec Max (limite sup);
#X text 455 348 Hz Frec Min (limite inf);
#X text 60 430 Auto Scan;
#X obj 30 660 tgl 15 0 empty empty empty 17 7 0 10 #fcfcfc #000000
#000000 0 1;
#X text 314 32 DATALINA;
#X text 180 60 Una adaptación de "Catalina" (1973 \, Fernando von
Reichenbach) desarrollada en Pure Data.;
#N canvas 255 406 684 498 sobreDatalina 0;
#X text 30 20 Datalina (2026) es un patch creado por Damian Anache.
;
#X text 30 170 https://archivofvr.unq.edu.ar/;
#X text 30 243 https://www.youtube.com/watch?v=tH-FXIpVwxU;
#X text 30 360 https://ezequielabregu.github.io/code-that-sounds/;
#X text 30 50 Para este proyecto me inspiré en Catalina \, el conversor
desarrollado por Fernando von Reichenbach y patentado en 1973 (EE.
UU.).;
#X text 30 110 Pueden encontrar información detallada sobre el trabajo
de Fernando von Reichenbach en el Archivo de Música y Arte Sonoro
FvR \, radicado en la Universidad Nacional de Quilmes:;
#X text 30 200 También recomiendo esta entrevista \, donde comento
el trabajo de Fernando y el proyecto Catalina:;
#X text 30 280 Para el desarrollo de este patch tomé como base el
trabajo de Ezequiel Abregú: Code That Sounds: Creative Coding and
Sonic Thinking with Pure Data (2025). Capítulo 5: Sonification \,
sección 5.9 Image Scanner. Disponible en:;
#X restore 290 110 pd sobreDatalina;
#X obj 205 461 tgl 15 0 empty empty empty 17 7 0 10 #fcfcfc #000000
#000000 0 1;
#X text 195 436 Loop;
#X text 384 600 REC;
#X obj 390 625 bng 15 250 50 0 empty GUIrecAudio empty 17 7 0 10 #fc0000
#000000 #000000;
#X obj 431 624 bng 15 250 50 0 empty GUIrecAudioStop empty 17 7 0 10
#fcfcfc #000000 #000000;
#X text 421 599 STOP;
#X floatatom 556 626 5 0 0 0 - - -, f 5;
#X obj 506 610 hsl 128 15 0 1 0 0 gain-individual GUI-individual-gain
empty -2 -8 0 10 #fcfcfc #000000 #000000 1750 1;
#X text 500 588 nivel amp individual;
#X text 37 573 nro de scan points;
#X msg 63 595 30;
#X msg 30 596 15;
#X obj 188 595 vsl 15 30 0.9 0 0 0 GUI-offset empty empty 0 -9 0 10
#fcfcfc #000000 #000000 0 1;
#X text 173 572 offset;
#X obj 543 510 s GUIinterp;
#X msg 126 595 90;
#X msg 512 459 100;
#X floatatom 543 486 5 0 0 0 - - -, f 5;
#N canvas 729 418 491 566 grabarVideo 0;
#X obj 280 300 gemhead 99;
#X obj 260 340 pix_write 0 0 640 480 3;
#X msg 260 150 file video/cuadros 99;
#X msg 70 320 auto \$1;
#X obj 70 301 tgl 15 0 empty empty empty 17 7 0 10 #fcfcfc #000000
#000000 0 1;
#X obj 70 40 inlet;
#X obj 260 120 sel 1;
#X obj 70 100 t f f;
#X obj 102 164 sel 1 0;
#X obj 102 253 s GUIrecAudio;
#X obj 102 193 bng 15 250 50 0 empty empty empty 17 7 0 10 #fcfcfc
#000000 #000000;
#X obj 125 193 bng 15 250 50 0 empty empty empty 17 7 0 10 #fcfcfc
#000000 #000000;
#X obj 125 218 s GUIrecAudioStop;
#X connect 0 0 1 0;
#X connect 2 0 1 0;
#X connect 3 0 1 0;
#X connect 4 0 3 0;
#X connect 5 0 7 0;
#X connect 6 0 2 0;
#X connect 7 0 4 0;
#X connect 7 1 6 0;
#X connect 7 1 8 0;
#X connect 8 0 10 0;
#X connect 8 1 11 0;
#X connect 10 0 9 0;
#X connect 11 0 12 0;
#X restore 350 700 pd grabarVideo;
#X obj 90 460 bng 20 250 50 0 empty empty empty 17 7 0 10 #00fc0c #000000
#000000;
#N canvas 1008 439 715 362 grabarAudio 0;
#X obj 89 49 inlet~;
#X obj 170 270 writesf~ 1;
#X msg 450 214 stop;
#X obj 170 104 t b b, f 9;
#X obj 170 76 bng 15 250 50 0 empty empty empty 17 7 0 10 #fcfcfc #000000
#000000;
#X msg 239 160 open grabacion1.wav \, start;
#X msg 170 130 start;
#X obj 170 50 inlet;
#X obj 450 66 bng 15 250 50 0 empty empty empty 17 7 0 10 #fcfcfc #000000
#000000;
#X obj 450 40 inlet;
#X obj 89 82 *~ 0.9;
#X msg 480 130 open -bytes 3 grabacion24bit.wav;
#X msg 480 153 open -bytes 4 audio.wav;
#X msg 229 130 open -bytes 4 audio.wav;
#X msg 480 183 open audio.wav;
#X connect 0 0 10 0;
#X connect 2 0 1 0;
#X connect 3 0 6 0;
#X connect 3 1 13 0;
#X connect 4 0 3 0;
#X connect 5 0 1 0;
#X connect 6 0 1 0;
#X connect 7 0 4 0;
#X connect 8 0 2 0;
#X connect 9 0 8 0;
#X connect 10 0 1 0;
#X connect 13 0 1 0;
#X restore 350 650 pd grabarAudio;
#X obj 350 680 tgl 15 0 empty empty empty 17 7 0 10 #fcfcfc #000000
#000000 0 1;
#X msg 93 595 45;
#X text 480 395 Tiempo de Interpolacion;
#X floatatom 100 626 5 0 0 0 - - -, f 5;
#X obj 30 550 loadbang;
#X obj 564 683 bng 15 250 50 0 empty empty empty 17 7 0 10 #fcfcfc
#000000 #000000;
#X text 480 660 frec de oscilador en consola;
#X msg 606 459 1500;
#N canvas 0 69 553 300 printFrec 0;
#X obj 80 40 inlet;
#X obj 80 69 t b b;
#X obj 80 168 s linear-scan-printFrec;
#X msg 112 100 valores de frecuencias de cada oscilador:;
#X obj 112 129 print;
#X connect 0 0 1 0;
#X connect 1 0 2 0;
#X connect 1 1 3 0;
#X connect 3 0 4 0;
#X restore 530 698 pd printFrec;
#N canvas 664 190 450 325 nivelDeAudio 0;
#X obj 115 40 inlet~;
#X obj 204 40 inlet;
#X obj 115 200 *~;
#X obj 204 160 line~;
#X msg 204 130 \$1 50;
#X obj 207 90 hsl 66 18 0 1 0 0 empty empty volume 18 9 1 11 #dcdcdc
#000000 #000000 2700 1;
#X obj 115 250 dac~ 1 2;
#X connect 0 0 2 0;
#X connect 1 0 5 0;
#X connect 2 0 6 0;
#X connect 2 0 6 1;
#X connect 3 0 2 1;
#X connect 4 0 3 0;
#X connect 5 0 4 0;
#X coords 0 -1 1 1 80 27 2 200 85;
#X restore 240 660 pd nivelDeAudio;
#X msg 479 459 20;
#X connect 3 0 2 0;
#X connect 4 0 60 0;
#X connect 4 0 70 0;
#X connect 6 0 5 0;
#X connect 8 0 7 0;
#X connect 10 0 9 4;
#X connect 11 0 9 3;
#X connect 13 0 9 2;
#X connect 17 0 18 0;
#X connect 24 0 57 0;
#X connect 25 0 57 0;
#X connect 26 0 24 0;
#X connect 36 0 16 0;
#X connect 40 0 9 1;
#X connect 43 0 60 1;
#X connect 44 0 60 2;
#X connect 47 0 46 0;
#X connect 50 0 64 0;
#X connect 51 0 64 0;
#X connect 52 0 20 1;
#X connect 55 0 64 0;
#X connect 56 0 57 0;
#X connect 57 0 54 0;
#X connect 59 0 9 0;
#X connect 61 0 58 0;
#X connect 62 0 64 0;
#X connect 64 0 20 0;
#X connect 65 0 51 0;
#X connect 66 0 69 0;
#X connect 68 0 57 0;
#X connect 71 0 57 0;
