#N canvas 362 178 1143 734 12;
#X obj 732 157 pix_data, f 21;
#X obj 804 183 unpack f f f;
#X floatatom 812 209 5 0 0 0 - - -, f 5;
#X floatatom 855 209 5 0 0 0 - - -, f 5;
#X floatatom 897 210 5 0 0 0 - - -, f 5;
#X obj 63 367 translateXYZ;
#X floatatom 90 271 5 0 0 0 - - -, f 5;
#X floatatom 117 345 5 0 0 0 - - -, f 5;
#X obj 63 470 circle;
#X obj 780 48 r image;
#X obj 90 248 expr ($f1*10) - 5;
#X obj 102 423 initbang;
#X obj 117 299 r \$0-ypos;
#X obj 63 154 gemhead;
#X obj 117 322 expr ($f1 * 8) - 4;
#X msg 102 446 0.05;
#X obj 320 559 osc~;
#X obj 320 681 throw~ audio;
#X obj 320 150 r \$0-ypos;
#X obj 803 238 expr $f1 + $f2 + $f3;
#X floatatom 812 264 5 0 0 0 - - -, f 5;
#X obj 320 588 *~;
#X obj 732 121 t b f;
#X obj 732 96 r xpos;
#X obj 90 225 r xpos;
#X floatatom 63 78 5 0 0 0 - - -, f 5;
#X obj 63 102 s \$0-ypos;
#X obj 876 101 r \$0-ypos;
#X floatatom 329 173 5 0 0 0 - - -, f 5;
#X floatatom 885 132 5 0 0 0 - - -, f 5;
#X obj 320 272 f;
#X obj 500 240 t b f;
#X obj 501 218 r rangeMax;
#X obj 395 218 r rangeMin;
#X obj 395 242 t b f;
#X obj 320 532 line~;
#X obj 372 485 r interp;
#X obj 320 492 t f b;
#X obj 372 512 f;
#X obj 320 650 *~;
#X obj 361 624 line~;
#X obj 361 600 r gain-individual;
#X obj 803 350 * -1;
#X obj 803 379 + 1;
#X obj 803 320 clip 0 1;
#X obj 803 290 * 0.3;
#X obj 600 560 vline~;
#X msg 600 467 0;
#X obj 701 475 +;
#X obj 630 500 pack f f f f f;
#X obj 675 390 r interp;
#X msg 630 530 \$1 \$2 \, \$1 \$3 \$2 \, 0 \$5 \$4;
#X obj 990 494 > 0.2;
#X obj 990 299 sel 1;
#X obj 950 400 tgl 15 0 empty empty empty 17 7 0 10 #fcfcfc #000000
#000000 0 1;
#X obj 803 415 spigot;
#X msg 950 350 0;
#X msg 1000 380 1;
#X obj 990 350 del 2000;
#X obj 1043 321 r interp;
#X obj 803 445 expr if ($f1 > 0.2 \, 1 \, 0);
#X obj 803 474 t f f;
#X msg 653 435 5;
#X msg 725 435 5;
#X obj 63 178 color 1 0 0;
#X obj 600 390 t b b b;
#X obj 550 426 del 1;
#X obj 63 29 r linear-scan-init;
#X obj 600 357 r linear-scan-init;
#X obj 330 340 r linear-scan-printFrec;
#X obj 330 380 f;
#X obj 330 409 print;
#X obj 320 297 expr ($f1 * ($f3 - $f2)) + $f2 \; ($f1 * ($f3- $f2))
;
#X obj 63 53 f \$1;
#X connect 0 1 1 0;
#X connect 1 0 2 0;
#X connect 1 0 19 0;
#X connect 1 1 3 0;
#X connect 1 1 19 1;
#X connect 1 2 4 0;
#X connect 1 2 19 2;
#X connect 5 0 8 0;
#X connect 6 0 5 1;
#X connect 7 0 5 2;
#X connect 9 0 0 1;
#X connect 10 0 6 0;
#X connect 11 0 15 0;
#X connect 12 0 14 0;
#X connect 13 0 64 0;
#X connect 14 0 7 0;
#X connect 15 0 8 1;
#X connect 16 0 21 0;
#X connect 18 0 28 0;
#X connect 18 0 30 0;
#X connect 19 0 20 0;
#X connect 19 0 45 0;
#X connect 21 0 39 0;
#X connect 22 0 0 0;
#X connect 22 1 0 2;
#X connect 23 0 22 0;
#X connect 24 0 10 0;
#X connect 25 0 26 0;
#X connect 27 0 0 3;
#X connect 27 0 29 0;
#X connect 30 0 72 0;
#X connect 31 0 30 0;
#X connect 31 1 72 2;
#X connect 32 0 31 0;
#X connect 33 0 34 0;
#X connect 34 0 30 0;
#X connect 34 1 72 1;
#X connect 35 0 16 0;
#X connect 36 0 38 0;
#X connect 37 0 35 0;
#X connect 37 1 38 0;
#X connect 38 0 35 1;
#X connect 39 0 17 0;
#X connect 40 0 39 1;
#X connect 41 0 40 0;
#X connect 42 0 43 0;
#X connect 43 0 55 0;
#X connect 44 0 42 0;
#X connect 45 0 44 0;
#X connect 46 0 21 1;
#X connect 47 0 46 0;
#X connect 48 0 49 3;
#X connect 49 0 51 0;
#X connect 50 0 48 0;
#X connect 50 0 49 2;
#X connect 51 0 46 0;
#X connect 52 0 53 0;
#X connect 53 0 56 0;
#X connect 53 0 58 0;
#X connect 54 0 55 1;
#X connect 55 0 60 0;
#X connect 56 0 54 0;
#X connect 57 0 54 0;
#X connect 58 0 57 0;
#X connect 59 0 58 1;
#X connect 60 0 61 0;
#X connect 61 0 49 0;
#X connect 61 1 52 0;
#X connect 62 0 48 1;
#X connect 62 0 49 1;
#X connect 63 0 49 4;
#X connect 64 0 5 0;
#X connect 65 0 66 0;
#X connect 65 0 47 0;
#X connect 65 1 62 0;
#X connect 65 2 63 0;
#X connect 66 0 57 0;
#X connect 67 0 73 0;
#X connect 68 0 65 0;
#X connect 69 0 70 0;
#X connect 70 0 71 0;
#X connect 72 0 37 0;
#X connect 72 0 70 1;
#X connect 73 0 25 0;
