#N canvas 237 79 892 646 12;
#X obj 562 257 pix_data, f 21;
#X obj 634 283 unpack f f f;
#X floatatom 642 309 5 0 0 0 - - -, f 5;
#X floatatom 685 309 5 0 0 0 - - -, f 5;
#X floatatom 727 310 5 0 0 0 - - -, f 5;
#X obj 63 367 translateXYZ;
#X floatatom 90 271 5 0 0 0 - - -, f 5;
#X floatatom 117 345 5 0 0 0 - - -, f 5;
#X obj 63 470 circle;
#X obj 63 178 color 1 0 0;
#X obj 610 148 r image;
#X obj 90 248 expr ($f1*10) - 5;
#X obj 102 423 initbang;
#X obj 117 299 r \$0-ypos;
#X obj 63 154 gemhead;
#X obj 117 322 expr ($f1 * 8) - 4;
#X msg 102 446 0.05;
#X obj 347 509 osc~;
#X obj 347 581 throw~ audio;
#X obj 347 157 r \$0-ypos;
#X obj 633 338 expr $f1 + $f2 + $f3;
#X floatatom 642 364 5 0 0 0 - - -, f 5;
#X obj 347 538 *~;
#X obj 633 518 line~;
#X obj 633 388 * 0.03;
#X floatatom 643 414 5 0 0 0 - - -, f 5;
#X floatatom 354 417 5 0 0 0 - - -, f 5;
#X obj 562 221 t b f;
#X obj 562 196 r xpos;
#X obj 90 225 r xpos;
#X floatatom 63 78 5 0 0 0 - - -, f 5;
#X obj 63 53 f \$1;
#X obj 63 102 s \$0-ypos;
#X obj 706 201 r \$0-ypos;
#X floatatom 359 183 5 0 0 0 - - -, f 5;
#X floatatom 715 232 5 0 0 0 - - -, f 5;
#X obj 63 28 initbang;
#X obj 347 262 f;
#X obj 377 242 t b f;
#X obj 347 295 *;
#X obj 378 220 r rangeMax;
#X obj 385 312 r rangeMin;
#X obj 347 356 f;
#X obj 347 393 +;
#X obj 385 336 t b f;
#X obj 685 471 r interp;
#X obj 633 478 t f b;
#X obj 685 498 f;
#X obj 347 482 line~;
#X obj 399 435 r interp;
#X obj 347 442 t f b;
#X obj 399 462 f;
#X connect 0 1 1 0;
#X connect 1 0 2 0;
#X connect 1 0 20 0;
#X connect 1 1 3 0;
#X connect 1 1 20 1;
#X connect 1 2 4 0;
#X connect 1 2 20 2;
#X connect 5 0 8 0;
#X connect 6 0 5 1;
#X connect 7 0 5 2;
#X connect 9 0 5 0;
#X connect 10 0 0 1;
#X connect 11 0 6 0;
#X connect 12 0 16 0;
#X connect 13 0 15 0;
#X connect 14 0 9 0;
#X connect 15 0 7 0;
#X connect 16 0 8 1;
#X connect 17 0 22 0;
#X connect 19 0 34 0;
#X connect 19 0 37 0;
#X connect 20 0 21 0;
#X connect 20 0 24 0;
#X connect 22 0 18 0;
#X connect 23 0 22 1;
#X connect 24 0 25 0;
#X connect 24 0 46 0;
#X connect 27 0 0 0;
#X connect 27 1 0 2;
#X connect 28 0 27 0;
#X connect 29 0 11 0;
#X connect 30 0 32 0;
#X connect 31 0 30 0;
#X connect 33 0 0 3;
#X connect 33 0 35 0;
#X connect 36 0 31 0;
#X connect 37 0 39 0;
#X connect 38 0 37 0;
#X connect 38 1 39 1;
#X connect 39 0 42 0;
#X connect 40 0 38 0;
#X connect 41 0 44 0;
#X connect 42 0 43 0;
#X connect 43 0 26 0;
#X connect 43 0 50 0;
#X connect 44 0 42 0;
#X connect 44 1 43 1;
#X connect 45 0 47 0;
#X connect 46 0 23 0;
#X connect 46 1 47 0;
#X connect 47 0 23 1;
#X connect 48 0 17 0;
#X connect 49 0 51 0;
#X connect 50 0 48 0;
#X connect 50 1 51 0;
#X connect 51 0 48 1;
